<?xml version="1.0" standalone="no"?>
<!DOCTYPE svg PUBLIC "-//W3C//DTD SVG 20010904//EN"
 "http://www.w3.org/TR/2001/REC-SVG-20010904/DTD/svg10.dtd">
<svg version="1.0" xmlns="http://www.w3.org/2000/svg"
 width="1024.000000pt" height="22.000000pt" viewBox="0 0 1024.000000 22.000000"
 preserveAspectRatio="xMidYMid meet">
<metadata>
Created by potrace 1.15, written by Peter Selinger 2001-2017
</metadata>
<g transform="translate(0.000000,22.000000) scale(0.100000,-0.100000)"
fill="#000000" stroke="none">
<path d="M5073 198 c-13 -6 -25 -20 -29 -31 -6 -18 -12 -19 -88 -13 -44 4
-115 14 -156 23 -79 16 -221 15 -2450 -17 -349 -5 -1021 -12 -1492 -16 -472
-4 -858 -10 -858 -14 0 -12 292 -20 744 -20 441 0 991 -7 2942 -35 932 -14
1047 -14 1099 0 32 8 100 18 151 21 91 7 93 6 116 -19 35 -40 87 -40 124 -1
23 26 26 27 112 21 48 -4 114 -14 147 -22 54 -14 132 -15 755 -5 1573 24 2082
30 2815 35 854 6 1235 14 1235 24 0 4 -354 11 -787 14 -434 4 -1501 16 -2372
28 -1241 17 -1594 20 -1629 10 -25 -6 -91 -17 -146 -23 l-102 -11 -31 32 c-33
32 -61 38 -100 19z"/>
</g>
</svg>
